<?xml version="1.0" encoding="UTF-8"?>
<svg id="Layer_1" xmlns="http://www.w3.org/2000/svg" viewBox="0 0 214.88 204.28">
  <defs>
    <style>
      .cls-1 {
        fill: #fff;
      }
    </style>
  </defs>
  <path class="cls-1" d="M214.88,66.45c-.27.34-.56.86-.99,1.19-13.72,10.52-27.45,21.01-41.18,31.52-2.6,1.99-5.16,4.01-7.8,5.94-.91.66-1.11,1.25-.71,2.33,5.07,14.1,10.07,28.22,15.17,42.31.61,1.68.45,2.59-1.11,3.68-23.71,16.45-47.36,32.98-71.03,49.49q-2.86,2-4.31-1.22c-9.07-20.24-18.14-40.48-27.19-60.73-.63-1.41-1.48-2.47-2.82-3.31-23.97-14.94-47.9-29.92-71.87-44.86-1.28-.8-1.31-1.35-.38-2.56,6.85-8.91,13.62-17.9,20.41-26.86,9.33-12.32,18.67-24.64,27.96-36.99.7-.93,1.33-.85,2.27-.56,17.83,5.42,35.67,10.8,53.49,16.24,1.29.39,2.06.25,2.96-.83,11.39-13.52,22.84-26.98,34.24-40.49.72-.85,1.44-.83,2.34-.65,18.83,3.72,37.66,7.45,56.49,11.12,1.05.2,1.45.59,1.68,1.62,3.51,15.42,7.08,30.83,10.64,46.23.55,2.37,1.11,4.74,1.73,7.37ZM176.48,152.08c-13.92-3.54-27.4-6.98-40.9-10.35-.56-.14-1.48.25-1.91.7-1.37,1.43-2.96,2.44-4.93,2.42-1.3-.01-1.68.59-2.06,1.61-5.42,14.9-10.86,29.78-16.29,44.68-1.07,2.94-2.1,5.91-3.31,9.35,23.29-16.24,46.15-32.19,69.4-48.41ZM104.63,200.54c.22-.42.3-.54.35-.68,6.56-18.19,13.11-36.39,19.7-54.57.3-.82.2-1.22-.49-1.79-.83-.69-1.67-1.56-2.07-2.53-.48-1.16-1.14-1.34-2.25-1.35-13.63-.14-27.25-.34-40.88-.51-.52,0-1.04.05-1.82.09,9.19,20.53,18.28,40.82,27.46,61.34ZM73.38,135.58c-.03-.56,0-.73-.05-.87-5.19-15.16-10.38-30.33-15.63-45.47-.17-.48-.95-1.01-1.5-1.06-2.88-.3-4.78-1.84-5.97-4.38-.2-.43-.35-.88-.55-1.36-15.27,3.2-30.39,6.37-45.9,9.62,23.42,14.65,46.4,29.02,69.61,43.53ZM51.57,28.05c.11,1.19.16,2.12.28,3.03.96,7.28,1.93,14.57,2.89,21.85.89,6.75,1.75,13.5,2.67,20.25.06.45.4,1.02.78,1.24,1.18.66,2.45,1.18,3.88,1.84,13.99-10.52,28.19-21.2,42.67-32.09-17.96-5.45-35.49-10.76-53.16-16.12ZM3.63,89.81c1.54-.31,2.62-.51,3.69-.74,13.77-2.99,27.53-5.98,41.29-9.03.57-.13,1.25-.67,1.5-1.2.83-1.79,2.05-3.1,3.79-4.02.43-.22.87-.98.83-1.44-.31-3.36-.73-6.71-1.13-10.06-1.05-8.78-2.11-17.56-3.18-26.34-.3-2.42-.65-4.84-1.02-7.63-15.35,20.27-30.44,40.21-45.77,60.46ZM167.03,48.62c10.57-11.66,21.33-23.54,32.26-35.6-18.22-3.59-36.12-7.11-54.34-10.7.33.96.52,1.52.72,2.09,1.85,5.03,3.69,10.07,5.54,15.1,3.24,8.8,6.47,17.61,9.75,26.4.19.52.7,1.1,1.19,1.28,1.47.54,3.01.9,4.87,1.44ZM159.16,47.27c-5.33-14.46-10.77-29.21-16.32-44.27-11.31,13.33-22.42,26.43-33.68,39.7.61.16.96.27,1.32.34,7.96,1.61,15.91,3.21,23.87,4.81,6.53,1.31,13.05,2.65,19.59,3.91.57.11,1.43-.09,1.82-.48,1.15-1.15,2.12-2.46,3.4-3.99ZM200.8,14.64c-.98,1.05-1.73,1.85-2.46,2.66-9.19,10.14-18.36,20.29-27.58,30.4-1.54,1.69-2.97,3.11-1.83,5.78.47,1.1.73,1.65,1.9,1.92,11.61,2.66,23.21,5.37,34.81,8.06,2.17.5,4.35.95,6.78,1.48-3.9-16.88-7.72-33.43-11.62-50.29ZM163.59,103.56c16.01-12.26,31.76-24.32,47.78-36.59-3.17-.73-5.91-1.36-8.66-1.99-10.99-2.55-21.97-5.11-32.95-7.68-.86-.2-1.36,0-1.93.74-.68.9-1.55,1.81-2.55,2.28-1.19.56-1.39,1.28-1.39,2.44-.07,9.02-.21,18.05-.29,27.07-.04,4.46,0,8.92,0,13.74ZM103.32,102.86c-2.31-2.29-3.93-4.87-4.81-7.93-.13-.45-.92-.89-1.47-1.02-11.38-2.5-22.77-4.96-34.17-7.41-2.17-.47-3.06.49-2.38,2.53,3.9,11.68,7.8,23.36,11.71,35.03,1.26,3.76,2.53,7.51,3.9,11.58,9.16-11.04,18.13-21.84,27.22-32.79ZM106.29,45.77c-14.42,10.83-28.57,21.44-42.81,32.13.33.16.42.22.52.25,11.25,2.43,22.49,4.86,33.74,7.31.92.2,1.24-.22,1.56-.97,2.01-4.71,5.47-7.82,10.36-9.36.35-.11.66-.32.99-.49-1.45-9.57-2.88-19.03-4.37-28.85ZM177.26,150.09c-5.17-14.5-10.22-28.67-15.33-43.01-.63.59-1.04.95-1.44,1.34-8.35,8.1-16.69,16.21-25.07,24.28-.95.91-1.44,1.65-.63,2.92.36.56.45,1.39.42,2.09-.05,1.03.33,1.41,1.33,1.67,5.19,1.33,10.36,2.77,15.54,4.13,8.27,2.18,16.54,4.33,25.18,6.58ZM155.19,54.21c-15.59-3.13-31.05-6.23-46.81-9.38,1.54,10.06,3.03,19.81,4.54,29.65,4.81-.33,8.88,1.11,12.37,4.06,4.46-2.72,29.54-23.01,29.9-24.32ZM105.06,104.25c-8.79,10.88-17.53,21.69-26.57,32.88h42.91c.32-1.23,1.18-2.63.88-3.71-2.41-8.51-5.03-16.95-7.62-25.4-.11-.37-.59-.87-.93-.89-3.1-.19-5.95-1.14-8.67-2.88ZM161.33,61.14c-.38.24-.61.36-.81.52-9.87,7.78-19.74,15.58-29.63,23.33-.74.58-.73,1.12-.67,1.96.19,2.3.42,4.64.16,6.91-.17,1.44.16,1.78,1.41,2.09,4.75,1.2,9.48,2.51,14.22,3.76,5.03,1.33,10.07,2.64,15.32,4.02v-42.59ZM160.19,105.69c-10.53-2.78-20.68-5.46-30.42-8.03-1.88,2.13-3.34,4.3-5.3,5.82-1.58,1.22-1.75,2.17-1.2,3.91,2.4,7.58,4.65,15.2,6.96,22.8.63,2.07,1.61,2.33,3.14.89,3.18-3.01,6.37-6,9.54-9.01,5.66-5.36,11.32-10.73,17.27-16.37Z"/>
</svg>