<?xml version="1.0" encoding="UTF-8"?>
<svg xmlns="http://www.w3.org/2000/svg" version="1.1" viewBox="0 0 549.4 204.3">
  <defs>
    <style>
      .cls-1 {
        fill: #fff;
      }
    </style>
  </defs>
  <!-- Generator: Adobe Illustrator 28.7.1, SVG Export Plug-In . SVG Version: 1.2.0 Build 142)  -->
  <g>
    <g id="Layer_1">
      <path class="cls-1" d="M214.9,66.4c-.3.3-.6.9-1,1.2-13.7,10.5-27.4,21-41.2,31.5-2.6,2-5.2,4-7.8,5.9-.9.7-1.1,1.2-.7,2.3,5.1,14.1,10.1,28.2,15.2,42.3.6,1.7.4,2.6-1.1,3.7-23.7,16.4-47.4,33-71,49.5-1.9,1.3-3.3.9-4.3-1.2-9.1-20.2-18.1-40.5-27.2-60.7-.6-1.4-1.5-2.5-2.8-3.3-24-14.9-47.9-29.9-71.9-44.9-1.3-.8-1.3-1.3-.4-2.6,6.8-8.9,13.6-17.9,20.4-26.9,9.3-12.3,18.7-24.6,28-37,.7-.9,1.3-.9,2.3-.6,17.8,5.4,35.7,10.8,53.5,16.2,1.3.4,2.1.2,3-.8,11.4-13.5,22.8-27,34.2-40.5.7-.9,1.4-.8,2.3-.6,18.8,3.7,37.7,7.4,56.5,11.1,1.1.2,1.4.6,1.7,1.6,3.5,15.4,7.1,30.8,10.6,46.2.6,2.4,1.1,4.7,1.7,7.4h0ZM176.5,152.1c-13.9-3.5-27.4-7-40.9-10.4-.6-.1-1.5.2-1.9.7-1.4,1.4-3,2.4-4.9,2.4-1.3,0-1.7.6-2.1,1.6-5.4,14.9-10.9,29.8-16.3,44.7-1.1,2.9-2.1,5.9-3.3,9.4,23.3-16.2,46.2-32.2,69.4-48.4h0ZM104.6,200.5c.2-.4.3-.5.3-.7,6.6-18.2,13.1-36.4,19.7-54.6.3-.8.2-1.2-.5-1.8-.8-.7-1.7-1.6-2.1-2.5-.5-1.2-1.1-1.3-2.2-1.4-13.6-.1-27.2-.3-40.9-.5-.5,0-1,0-1.8,0,9.2,20.5,18.3,40.8,27.5,61.3h0ZM73.4,135.6c0-.6,0-.7,0-.9-5.2-15.2-10.4-30.3-15.6-45.5-.2-.5-1-1-1.5-1.1-2.9-.3-4.8-1.8-6-4.4-.2-.4-.3-.9-.5-1.4-15.3,3.2-30.4,6.4-45.9,9.6,23.4,14.7,46.4,29,69.6,43.5h0ZM51.6,28c.1,1.2.2,2.1.3,3,1,7.3,1.9,14.6,2.9,21.9.9,6.8,1.8,13.5,2.7,20.2,0,.4.4,1,.8,1.2,1.2.7,2.5,1.2,3.9,1.8,14-10.5,28.2-21.2,42.7-32.1-18-5.5-35.5-10.8-53.2-16.1h0ZM3.6,89.8c1.5-.3,2.6-.5,3.7-.7,13.8-3,27.5-6,41.3-9,.6-.1,1.2-.7,1.5-1.2.8-1.8,2-3.1,3.8-4,.4-.2.9-1,.8-1.4-.3-3.4-.7-6.7-1.1-10.1-1-8.8-2.1-17.6-3.2-26.3-.3-2.4-.7-4.8-1-7.6-15.3,20.3-30.4,40.2-45.8,60.5ZM167,48.6c10.6-11.7,21.3-23.5,32.3-35.6-18.2-3.6-36.1-7.1-54.3-10.7.3,1,.5,1.5.7,2.1,1.9,5,3.7,10.1,5.5,15.1,3.2,8.8,6.5,17.6,9.8,26.4.2.5.7,1.1,1.2,1.3,1.5.5,3,.9,4.9,1.4h0ZM159.1,47.3c-5.3-14.5-10.8-29.2-16.3-44.3-11.3,13.3-22.4,26.4-33.7,39.7.6.2,1,.3,1.3.3,8,1.6,15.9,3.2,23.9,4.8,6.5,1.3,13.1,2.7,19.6,3.9.6.1,1.4,0,1.8-.5,1.1-1.2,2.1-2.5,3.4-4h0ZM200.8,14.6c-1,1.1-1.7,1.8-2.5,2.7-9.2,10.1-18.4,20.3-27.6,30.4-1.5,1.7-3,3.1-1.8,5.8.5,1.1.7,1.7,1.9,1.9,11.6,2.7,23.2,5.4,34.8,8.1,2.2.5,4.4.9,6.8,1.5-3.9-16.9-7.7-33.4-11.6-50.3h0ZM163.6,103.6c16-12.3,31.8-24.3,47.8-36.6-3.2-.7-5.9-1.4-8.7-2-11-2.5-22-5.1-32.9-7.7-.9-.2-1.4,0-1.9.7-.7.9-1.6,1.8-2.6,2.3-1.2.6-1.4,1.3-1.4,2.4,0,9-.2,18-.3,27.1,0,4.5,0,8.9,0,13.7h0ZM103.3,102.9c-2.3-2.3-3.9-4.9-4.8-7.9-.1-.4-.9-.9-1.5-1-11.4-2.5-22.8-5-34.2-7.4-2.2-.5-3.1.5-2.4,2.5,3.9,11.7,7.8,23.4,11.7,35,1.3,3.8,2.5,7.5,3.9,11.6,9.2-11,18.1-21.8,27.2-32.8h0ZM106.3,45.8c-14.4,10.8-28.6,21.4-42.8,32.1.3.2.4.2.5.2,11.2,2.4,22.5,4.9,33.7,7.3.9.2,1.2-.2,1.6-1,2-4.7,5.5-7.8,10.4-9.4.3-.1.7-.3,1-.5-1.4-9.6-2.9-19-4.4-28.8h0ZM177.2,150.1c-5.2-14.5-10.2-28.7-15.3-43-.6.6-1,.9-1.4,1.3-8.4,8.1-16.7,16.2-25.1,24.3-.9.9-1.4,1.6-.6,2.9.4.6.4,1.4.4,2.1,0,1,.3,1.4,1.3,1.7,5.2,1.3,10.4,2.8,15.5,4.1,8.3,2.2,16.5,4.3,25.2,6.6h0ZM155.2,54.2c-15.6-3.1-31.1-6.2-46.8-9.4,1.5,10.1,3,19.8,4.5,29.6,4.8-.3,8.9,1.1,12.4,4.1,4.5-2.7,29.5-23,29.9-24.3h0ZM105,104.2c-8.8,10.9-17.5,21.7-26.6,32.9h42.9c.3-1.2,1.2-2.6.9-3.7-2.4-8.5-5-16.9-7.6-25.4-.1-.4-.6-.9-.9-.9-3.1-.2-5.9-1.1-8.7-2.9ZM161.3,61.1c-.4.2-.6.4-.8.5-9.9,7.8-19.7,15.6-29.6,23.3-.7.6-.7,1.1-.7,2,.2,2.3.4,4.6.2,6.9-.2,1.4.2,1.8,1.4,2.1,4.8,1.2,9.5,2.5,14.2,3.8,5,1.3,10.1,2.6,15.3,4v-42.6h0ZM160.2,105.7c-10.5-2.8-20.7-5.5-30.4-8-1.9,2.1-3.3,4.3-5.3,5.8-1.6,1.2-1.8,2.2-1.2,3.9,2.4,7.6,4.7,15.2,7,22.8.6,2.1,1.6,2.3,3.1.9,3.2-3,6.4-6,9.5-9,5.7-5.4,11.3-10.7,17.3-16.4h0Z"/>
      <g>
        <path class="cls-1" d="M228.4,101.6v-36.4c1.4,0,2.8,0,4.1,0,4.4,0,8.7-.1,13,0,2.2,0,4.4.5,6.4,1.3,6.6,2.9,7.4,11.3,1.5,15.5-.2.1-.4.3-.8.6.6.3,1.1.6,1.6.8,3.4,1.7,5.1,4.5,5,8.3,0,3.8-1.7,6.8-5.2,8.2-2.4.9-5,1.6-7.5,1.7-5.8.2-11.6,0-17.4,0-.2,0-.5,0-.8-.1ZM236.2,86.8v7.6c4,0,7.9.2,11.7,0,2.3-.1,3.4-1.7,3.4-3.8,0-1.9-1.2-3.5-3.5-3.6-3.8-.2-7.7,0-11.6,0ZM236.3,72.4v7.3c3.4,0,6.6.2,9.8,0,2.3-.2,3.3-1.7,3.2-3.6,0-1.9-1.2-3.4-3.4-3.5-3.2-.2-6.4,0-9.6,0Z"/>
        <path class="cls-1" d="M355.7,149.7h-7.9v-36.5c2.3,0,4.6,0,7,0,.4,0,.9.6,1.2,1,4.9,6.5,9.9,13,14.8,19.4.4.5.8,1,1.4,1.9v-22.3h7.8v36.5c-2.1,0-4.2,0-6.2,0-.5,0-1-.6-1.3-1.1-5.2-6.8-10.4-13.6-15.6-20.4-.3-.4-.6-.8-1.2-1.5v23Z"/>
        <path class="cls-1" d="M525,90v11.6h-8v-36.3c.4,0,.9,0,1.4,0,5.1,0,10.3,0,15.4,0,1.3,0,2.7.1,4,.4,5.5,1.2,8.8,4.6,9.4,9.7.7,6-1.5,10.3-6.8,12.9-.3.1-.5.3-.8.5,2.9,4.3,5.8,8.5,8.9,13-2.2,0-4.1-.2-6,0-2.5.3-4-.6-5.3-2.8-1.6-2.8-3.5-5.4-5.3-8-.4-.5-1.2-.9-1.8-.9-1.6-.1-3.3,0-5.1,0ZM525.1,82.7c3.4,0,6.8.2,10.1,0,2.3-.2,3.7-1.9,4-3.9.5-3.2-1-5.7-4.3-6-3.2-.3-6.4-.1-9.6-.2l-.2.2v10Z"/>
        <path class="cls-1" d="M451,64.6c11,0,19.4,8.1,19.4,18.8,0,10.7-8.4,19-19.4,19-11,0-19.4-8.1-19.4-18.8,0-10.7,8.4-19,19.4-19ZM462,83.5c0-6.6-4.8-11.5-11.1-11.5-6.2,0-10.9,4.9-10.9,11.3,0,6.6,4.7,11.6,11,11.6,6.3,0,11-4.8,11-11.4Z"/>
        <path class="cls-1" d="M420.7,117.6c-1.7,2.1-3.3,4-5,6-1-.7-1.9-1.4-2.9-1.9-5.2-3.1-11.5-2-14.8,2.5-3.6,4.7-3,11.9,1.2,15.9,3.5,3.3,10.4,3.9,14.4,1.1.3-.2.6-.7.6-1,0-1.4,0-2.9,0-4.5h-8v-6.9h15.8v2.3c0,4.1,0,8.1,0,12.2,0,.6-.2,1.4-.6,1.7-7.6,6.3-18.6,7.1-26.2,2.2-6.3-4.1-9.3-12-7.6-19.8,1.6-7.5,7.6-13.3,15.1-14.5,6.6-1,12.6,0,18,4.7Z"/>
        <path class="cls-1" d="M266.9,113.2h7.9v14.3h14.8v-14.2h8v36.4h-7.9v-14.5h-14.8v14.5h-8v-36.4Z"/>
        <path class="cls-1" d="M274.1,86.8v7.7h19.6v7.1h-27.6v-36.3h27.4v7h-19.3v7.4h16.9v7.1h-17Z"/>
        <path class="cls-1" d="M454.9,127.7v7.1h-17.1c0,2.5,0,4.7,0,7,0,.2.9.7,1.3.7,5.4,0,10.9,0,16.3,0,.6,0,1.2,0,1.9,0v7.1h-27.5v-36.3h27.3v7h-19.4c0,2.4,0,4.6,0,6.8,0,.2.9.6,1.3.6,4.6,0,9.3,0,13.9,0,.5,0,1.1,0,1.8,0Z"/>
        <path class="cls-1" d="M323.8,101.6v-14.5h-14.8v14.5h-7.9v-36.3h7.8v14.2h14.8v-14.2h7.9v36.3h-7.9Z"/>
        <path class="cls-1" d="M477,65.2h8c0,.6,0,1.1,0,1.7,0,6.1,0,12.1,0,18.2,0,1.1,0,2.3.2,3.4.8,4.4,3.6,6.5,8.1,6.3,4.1-.2,6.9-2.6,7.2-7,.3-4,.1-8.1.2-12.1,0-3.4,0-6.9,0-10.4h7.9c0,.4.1.8.1,1.1,0,6.8,0,13.5,0,20.3,0,1.7-.3,3.4-.7,5-1.5,5.9-5.9,9.7-12,10.3-2.4.2-4.9.3-7.3-.2-6.6-1.2-10.5-5.4-11.5-12.1-.2-1.3-.3-2.6-.3-3.9,0-6.4,0-12.7,0-19.1,0-.5,0-1,0-1.6Z"/>
        <path class="cls-1" d="M375.9,101.7c-2.6,0-5,0-7.4,0-.4,0-.9-.5-1.1-.9-.9-2-1.7-4-2.5-6.1-.3-.8-.7-1.2-1.6-1.2-4.4,0-8.8,0-13.2,0-.8,0-1.2.3-1.5,1.1-.8,2-1.7,4-2.4,6-.3.9-.8,1.2-1.8,1.2-2.2,0-4.4,0-6.8,0,.2-.7.4-1.2.6-1.6,4.8-11.2,9.6-22.4,14.3-33.7.5-1.1,1-1.7,2.3-1.6,1.6.1,3.2,0,4.8,0,.5,0,1.2.4,1.3.8,5,11.8,10,23.5,15,35.3,0,.1,0,.3,0,.7ZM361.5,86.3c-1.6-3.9-3.1-7.6-4.8-11.7-1.7,4.1-3.2,7.8-4.8,11.7h9.6Z"/>
        <path class="cls-1" d="M303.4,149.7c.2-.6.4-1.1.5-1.5,4.8-11.3,9.6-22.6,14.4-33.9.4-1.1,1-1.6,2.2-1.5,1.6.1,3.2,0,4.8,0,.5,0,1.3.4,1.4.9,5.1,11.7,10,23.5,15,35.3,0,.1,0,.3,0,.6-2.6,0-5.1,0-7.6,0-.4,0-.9-.6-1-1-.9-2-1.7-3.9-2.4-6-.4-1-.9-1.2-1.9-1.2-4.2,0-8.4,0-12.6,0-1,0-1.6.3-2,1.3-.7,2-1.6,3.9-2.3,5.8-.3.8-.7,1.2-1.6,1.1-2.2,0-4.5,0-7,0ZM317.8,134.3h9.6c-1.6-3.9-3.1-7.7-4.8-11.7-1.7,4-3.2,7.8-4.8,11.7Z"/>
        <path class="cls-1" d="M260.1,118.3c-1.6,1.9-3.3,3.8-5,5.7-7.6-5.1-13.1-5.3-17.2-.5-3.8,4.4-3.7,11.8.3,16.1,4.2,4.6,10.1,4.3,17-.9,1.6,1.7,3.3,3.3,5,5-2.9,4.9-11.7,7.7-19.1,6-8.1-1.9-13.8-8.5-14.4-16.9-.6-8.3,4-15.9,11.5-18.9,7.5-3,17.4-1.1,21.8,4.3Z"/>
        <path class="cls-1" d="M373.4,65.2c2.9,0,5.5,0,8.2,0,.4,0,.9.6,1.1,1.1,2.8,7.5,5.6,15.1,8.4,22.6.2.5.4,1,.7,1.8.7-1.9,1.3-3.5,2-5.2,2.4-6.4,4.8-12.8,7.1-19.3.3-.9.8-1.2,1.7-1.2,2.4,0,4.8,0,7.3,0-.2.6-.4,1.1-.5,1.5-4.5,11.3-9.1,22.5-13.5,33.8-.4,1.1-.9,1.6-2.2,1.5-1.8-.2-4.1.5-5.4-.4-1.2-.8-1.6-3.1-2.2-4.8-4-9.9-8-19.8-11.9-29.8-.2-.5-.4-1.1-.7-1.9Z"/>
        <path class="cls-1" d="M424,101.6h-7.8v-36.3h7.8v36.3Z"/>
        <path class="cls-1" d="M364.9,174.9c.7.3,1.3.6,1.9.9,3.7,1.9,4.2,6.8.9,9.3-1,.7-2.2,1.4-3.4,1.5-4.3.3-8.6.4-13.1.5v-23.4c4.1,0,8.2-.2,12.3,0,2.9.2,4.7,2.2,5,4.7.3,2.7-.7,4.7-3.1,6-.1,0-.2.2-.5.4ZM353,185.2c3.7,0,7.1,0,10.6,0,.8,0,1.6-.4,2.4-.9,1.5-.9,2.2-2.4,2.1-4.2-.2-1.7-1.1-2.8-2.6-3.3-1.3-.4-2.6-.7-3.9-.8-2.5-.1-5,0-7.5,0-.3,0-.6.1-1,.2v9ZM353,174.3c2.7,0,5.3,0,7.9,0,.9,0,1.8-.2,2.6-.5,2.1-.7,3.3-2.5,3.2-4.5-.1-2-1.3-3.7-3.5-3.8-3.3-.3-6.7,0-10.2,0v9Z"/>
        <path class="cls-1" d="M404.2,163.7c4.2,0,8.3-.3,12.4,0,3.6.4,5.7,3,5.8,6.2,0,3.3-1.8,5.7-5.5,6.7-.3,0-.7.2-1.3.3,2.5,3.3,5,6.5,7.6,9.8-1.4.4-2.2.2-3-.9-1.9-2.6-3.9-5.2-6-7.7-.4-.5-1.3-.9-2-1-2.1-.1-4.2,0-6.4,0v9.7c-.6,0-1.1,0-1.7.1v-23.3ZM405.9,175.6c2.6,0,5.1.1,7.6,0,1.6-.1,3.2-.4,4.6-1.1,2.7-1.4,3.4-5.1,1.5-7.3-1.2-1.5-2.9-2-4.6-2.1-2.8,0-5.7,0-8.5,0-.2,0-.4.1-.5.2v10.3Z"/>
        <path class="cls-1" d="M253.3,175.4c-.1-6.9,4.9-12.2,11.6-12.3,6.8-.1,12,5.1,12.1,12.2,0,6.7-5.1,12.1-11.7,12.2-6.8.1-11.9-5-12-12ZM255.1,175.1c0,6.1,4.2,10.7,9.9,10.7,5.7,0,10-4.4,10.1-10.4,0-6-4.3-10.7-9.9-10.7-5.7,0-10,4.5-10,10.4Z"/>
        <path class="cls-1" d="M398.1,175.2c0,6.9-5.2,12.2-11.9,12.2-6.7,0-11.7-5.2-11.8-12.2,0-6.9,5.2-12.2,11.9-12.2,6.7,0,11.7,5.2,11.8,12.2ZM396.3,175.2c0-6-4.4-10.6-10.1-10.6-5.6,0-10,4.7-9.9,10.6,0,6,4.5,10.6,10.2,10.6,5.7,0,9.9-4.6,9.9-10.6Z"/>
        <path class="cls-1" d="M291.5,30.2v1.6h-14.8v9.1c.5,0,1.1,0,1.6,0,3.5,0,7,0,10.5,0,1.2,0,1.6.4,1.1,1.7h-13.2v9.4h15v1.6h-16.8v-23.4h16.6Z"/>
        <path class="cls-1" d="M525.1,185.4c.2,1,.4,1.7-.8,1.7-5.2,0-10.4,0-15.6,0,0,0-.2,0-.4-.2v-23.2h16.6v1.5h-14.8v9.2h13.2c.4,1.2.2,1.7-1,1.7-4,0-8,0-12.1,0v9.4h14.9Z"/>
        <path class="cls-1" d="M267.7,53.6c-.5,0-1,0-1.6,0v-11h-15.1v10.9h-1.7v-23.5c.5,0,1,0,1.6-.1v10.8h15.2v-10.7h1.7v23.5Z"/>
        <path class="cls-1" d="M449.9,186.8c-1.3.4-2.1.1-2.4-1.1,0,0,0-.2-.1-.3-.8-1.7-1.2-3.9-2.5-4.8-1.3-.8-3.5-.2-5.3-.2-2.4,0-4.8,0-7.2,0-.9,0-1.4.2-1.7,1.1-.6,1.5-1.4,2.9-1.9,4.4-.4,1.1-1.1,1.4-2.3,1,.2-.4.3-.8.5-1.2,3.2-7,6.5-14.1,9.8-21.1.2-.5.9-1.2,1.4-1.2.5,0,1.2.6,1.4,1.1,3.4,7.1,6.7,14.3,10,21.5.1.3.2.5.4.9ZM444.3,178.7c-2.1-4.5-4-8.8-6.1-13.5-2.1,4.7-4.1,9-6.1,13.5h12.3Z"/>
        <path class="cls-1" d="M346,186.9c-1.3.4-1.9,0-2.4-1.1-.7-1.8-1.2-4.2-2.6-5.1-1.4-.9-3.8-.2-5.7-.3-2.3,0-4.6,0-6.9,0-.5,0-1.2.5-1.4.9-.8,1.4-1.4,3-2.1,4.5-.6,1.2-.6,1.2-2.2,1.1,0-.3.1-.6.2-.8,3.4-7.3,6.7-14.6,10.1-21.9.2-.4.8-.9,1.2-.9.4,0,1.1.5,1.3.9,3.5,7.4,6.9,14.8,10.3,22.1,0,.1,0,.3.1.5ZM340.5,178.7c-2.1-4.5-4-8.9-6.1-13.5-2.1,4.7-4.1,9-6.2,13.5h12.3Z"/>
        <path class="cls-1" d="M250.1,167c-.5.3-.9.6-1.4,1-2.6-2.5-5.8-3.8-9.6-3.2-2.4.4-4.4,1.6-5.9,3.6-3.4,4.3-3,10.9.9,14.7,4,3.9,9.4,3.6,14.9-.8.3.3.7.6,1.1.9-3.3,4.8-11.5,5.7-16.4,1.8-5.4-4.2-6.1-12.8-1.5-18,4.6-5.2,12.7-5.4,18,0Z"/>
        <path class="cls-1" d="M481.1,163.7c1.2-.5,1.9-.2,2.4,1,2.6,6.2,5.3,12.4,7.9,18.6.2.5.4,1,.8,1.7.8-1.8,1.5-3.5,2.2-5.1,2.2-5.1,4.4-10.2,6.5-15.3.4-1,1-1.4,2.2-1-.1.4-.2.8-.4,1.2-3.1,7-6.1,14.1-9.3,21.1-.2.5-.9,1.2-1.2,1.2-.5,0-1.1-.7-1.4-1.2-3.1-6.9-6.1-13.9-9.1-20.8-.2-.4-.4-.9-.6-1.4Z"/>
        <path class="cls-1" d="M234,31.8h-8.1c0-.6,0-1-.1-1.6h18.1v1.6h-8.1v21.9h-1.7v-21.8Z"/>
        <path class="cls-1" d="M460.3,186.9h-1.8v-21.9c-2.4,0-4.7,0-7,0-1.1,0-1.5-.3-1.1-1.5h17.9c.4,1,.2,1.5-1.1,1.5-2.2,0-4.5,0-6.9,0v21.9Z"/>
        <path class="cls-1" d="M284.6,185.4h13.8v1.5h-15.4v-23.3h1.6v21.8Z"/>
        <path class="cls-1" d="M319.3,185.4c0,.9.4,1.6-.8,1.6-4.8,0-9.7,0-14.6,0v-23.4h1.6v21.8h13.8Z"/>
        <path class="cls-1" d="M474.1,163.5h1.6v23.4h-1.6v-23.4Z"/>
      </g>
    </g>
  </g>
</svg>