<?xml version="1.0" encoding="UTF-8"?>
<svg id="Layer_1" xmlns="http://www.w3.org/2000/svg" xmlns:xlink="http://www.w3.org/1999/xlink" viewBox="0 0 251.08 238.79">
  <defs>
    <style>
      .cls-1 {
        fill: #231f20;
      }

      .cls-2 {
        fill: #fff;
      }

      .cls-3 {
        fill: none;
      }

      .cls-4 {
        clip-path: url(#clippath);
      }
    </style>
    <clipPath id="clippath">
      <rect class="cls-3" x="42.84" y="62.75" width="161.82" height="147.91"/>
    </clipPath>
  </defs>
  <polygon class="cls-2" points="125.54 0 0 91.21 47.95 238.79 203.13 238.79 251.08 91.21 125.54 0"/>
  <g class="cls-4">
    <g>
      <path class="cls-1" d="M73.76,62.75h102.07c2.05.51,4.15.85,6.13,1.57,4.19,1.53,7.72,4.07,10.63,7.48,3.82,4.47,6.11,9.61,6.13,15.47.08,32.83.04,65.65.04,98.48,0,2.98-.64,5.84-1.75,8.58-2.19,5.44-5.87,9.62-10.83,12.73-3.19,1.99-6.72,2.91-10.35,3.6h-27.88v-55.81h24.49v-24.79h-24.5c0-2.04-.03-4,0-5.96.04-2.03-.07-4.11.29-6.09.4-2.18,2.23-4.31,5-4.26,5.98.11,11.97.03,17.96.03h1.26v-24.81h-1.34c-5.83,0-11.66.05-17.48-.01-7.91-.09-14.43,2.92-19.82,8.6-4.56,4.8-7.45,10.49-8.46,16.96-.61,3.89-.41,7.91-.55,11.87-.04,1.21,0,2.41,0,3.77h-18.11c-.04.26-.07.38-.07.5,0,7.76,0,15.51-.03,23.27,0,.91.42,1,1.16,1,5.24-.02,10.47-.02,15.71-.02.42,0,.84,0,1.35,0v55.77h-51.04c-4.48-.77-8.71-2.14-12.37-4.96-6.81-5.26-10.54-12.09-10.55-20.78-.02-31.92.02-63.83-.02-95.75,0-4.07.67-7.95,2.42-11.61,2.25-4.7,5.64-8.38,10.08-11.15,3.22-2.01,6.77-2.97,10.44-3.66Z"/>
      <path class="cls-2" d="M73.76,62.75c-3.66.69-7.21,1.65-10.44,3.66-4.44,2.77-7.83,6.45-10.08,11.15-1.75,3.65-2.42,7.53-2.42,11.61.04,31.92,0,63.83.02,95.75,0,8.69,3.74,15.52,10.55,20.78,3.66,2.82,7.89,4.19,12.37,4.96H16.11V62.75h57.65Z"/>
      <path class="cls-2" d="M175.83,210.66c3.63-.69,7.16-1.6,10.35-3.6,4.97-3.11,8.64-7.29,10.83-12.73,1.1-2.74,1.75-5.6,1.75-8.58,0-32.83.04-65.65-.04-98.48-.01-5.86-2.31-11-6.13-15.47-2.91-3.41-6.44-5.96-10.63-7.48-1.97-.72-4.08-1.06-6.13-1.57h57.65v147.91h-57.65Z"/>
      <path class="cls-2" d="M124.8,210.66v-55.77c-.51,0-.93,0-1.35,0-5.24,0-10.47,0-15.71.02-.74,0-1.16-.09-1.16-1,.03-7.76.02-15.51.03-23.27,0-.12.03-.23.07-.5h18.11c0-1.35-.04-2.56,0-3.77.14-3.96-.06-7.98.55-11.87,1.01-6.47,3.9-12.16,8.46-16.96,5.4-5.68,11.92-8.68,19.82-8.6,5.83.06,11.66.01,17.48.01h1.34v24.81h-1.26c-5.99,0-11.97.07-17.96-.03-2.76-.05-4.6,2.08-5,4.26-.36,1.98-.25,4.05-.29,6.09-.04,1.96,0,3.92,0,5.96h24.5v24.79h-24.49v55.81h-23.16Z"/>
    </g>
  </g>
</svg>