<?xml version="1.0" encoding="UTF-8"?>
<svg id="Layer_1" xmlns="http://www.w3.org/2000/svg" viewBox="0 0 251.08 238.79">
  <defs>
    <style>
      .cls-1 {
        fill: #231f20;
      }

      .cls-2 {
        fill: #fff;
      }
    </style>
  </defs>
  <polygon class="cls-2" points="125.54 0 0 91.21 47.95 238.79 203.13 238.79 251.08 91.21 125.54 0"/>
  <g>
    <path class="cls-2" d="M125.51,217.54c12.29.14,24.58.34,36.86-.48,4.68-.31,9.29-1.07,13.8-2.42,10.5-3.16,18.73-9.33,24.49-18.65,4.53-7.33,6.46-15.49,7.02-24,.33-5.08.57-10.17.58-15.26.04-16.41.01-32.82-.12-49.24-.04-5.46-.3-10.93-1.24-16.34-1.02-5.85-2.74-11.47-5.79-16.58-7.43-12.46-18.73-18.99-32.82-21.16-5.39-.83-10.84-.98-16.27-1.11-6.47-.14-12.94-.19-19.41-.18-14.63.04-29.27-.3-43.89.64-4.88.32-9.66,1.13-14.34,2.59-10.27,3.21-18.31,9.34-23.95,18.48-4.53,7.33-6.46,15.49-7.02,24-.33,5.05-.57,10.12-.58,15.18-.04,16.44-.01,32.88.12,49.32.04,5.46.3,10.93,1.24,16.34,1.02,5.85,2.74,11.47,5.79,16.58,7.43,12.46,18.73,18.99,32.82,21.16,5.39.83,10.84,1.03,16.27,1.1,8.81.11,17.63.03,26.44.03Z"/>
    <path class="cls-1" d="M125.51,217.54c-8.81,0-17.63.08-26.44-.03-5.44-.07-10.88-.27-16.27-1.1-14.09-2.17-25.39-8.7-32.82-21.16-3.05-5.12-4.78-10.73-5.79-16.58-.94-5.41-1.2-10.88-1.24-16.34-.13-16.44-.16-32.88-.12-49.32.01-5.06.25-10.13.58-15.18.55-8.5,2.49-16.67,7.02-24,5.65-9.14,13.68-15.27,23.95-18.48,4.67-1.46,9.46-2.27,14.34-2.59,14.62-.95,29.26-.6,43.89-.64,6.47-.02,12.94.03,19.41.18,5.44.12,10.88.27,16.27,1.11,14.09,2.17,25.39,8.7,32.82,21.16,3.05,5.12,4.78,10.73,5.79,16.58.94,5.41,1.19,10.88,1.24,16.34.13,16.41.16,32.82.12,49.24-.01,5.09-.25,10.18-.58,15.26-.55,8.51-2.49,16.67-7.02,24-5.76,9.32-13.99,15.49-24.49,18.65-4.51,1.35-9.11,2.11-13.8,2.42-12.28.82-24.57.62-36.86.48ZM129.73,202.98c7.11-.15,18.4-.35,29.69-.63,4.07-.1,8.09-.67,12.03-1.79,7.27-2.06,12.97-6.22,16.82-12.74,2.91-4.95,4.14-10.44,4.53-16.09.35-5.1.61-10.23.62-15.34.02-18.41.45-36.81-.41-55.21-.22-4.64-.79-9.22-2.28-13.64-2.56-7.62-7.43-13.2-14.74-16.59-4.32-2.01-8.94-2.97-13.66-3.27-5.05-.33-10.12-.6-15.18-.61-18.41-.03-36.82-.44-55.23.4-3.96.18-7.89.62-11.73,1.65-7.46,1.99-13.37,6.13-17.34,12.81-2.96,4.99-4.2,10.53-4.59,16.24-.35,5.08-.6,10.17-.62,15.26-.05,17.19-.35,34.39.24,51.58.14,4.17.33,8.34,1.15,12.45.85,4.23,2.22,8.26,4.66,11.86,4.48,6.59,10.83,10.29,18.51,11.94,5.35,1.15,10.8,1.31,16.23,1.42,9.03.19,18.06.2,31.27.33Z"/>
    <path class="cls-1" d="M168.07,134.88c.02,23.44-19.04,42.53-42.47,42.55-23.5.01-42.58-19.05-42.58-42.53,0-23.44,19.07-42.5,42.52-42.51,23.45,0,42.52,19.04,42.54,42.48ZM125.49,162.57c15.23.01,27.69-12.34,27.72-27.49.03-15.38-12.32-27.82-27.62-27.83-15.26-.01-27.7,12.36-27.72,27.57-.02,15.32,12.35,27.74,27.62,27.75Z"/>
    <path class="cls-1" d="M179.58,90.8c0,5.48-4.45,9.93-9.91,9.93-5.44,0-9.93-4.48-9.95-9.92-.02-5.48,4.47-9.95,9.99-9.93,5.5.02,9.88,4.42,9.87,9.93Z"/>
    <path class="cls-2" d="M125.49,162.57c-15.27-.01-27.64-12.44-27.62-27.75.02-15.22,12.45-27.59,27.72-27.57,15.3.01,27.65,12.45,27.62,27.83-.03,15.15-12.48,27.51-27.72,27.49Z"/>
  </g>
</svg>