<?xml version="1.0" encoding="UTF-8"?>
<svg id="Layer_1" xmlns="http://www.w3.org/2000/svg" viewBox="0 0 253.24 260.78">
  <defs>
    <style>
      .cls-1 {
        fill: #231f20;
      }

      .cls-2 {
        fill: #fff;
      }
    </style>
  </defs>
  <polygon class="cls-2" points="125.54 0 0 91.21 47.95 238.79 203.13 238.79 251.08 91.21 125.54 0"/>
  <g>
    <path class="cls-2" d="M253.24,15.24c0,81.85,0,163.69,0,245.54M127.02,211.63v.05c11.47,0,22.94.05,34.41-.02,4.59-.03,9.19-.19,13.77-.49,11.91-.78,22.15-8.78,25.7-19.88,1.66-5.18,1.75-10.54,1.77-15.87.07-23.55.07-47.09.02-70.64,0-4.63-.2-9.26-.51-13.88-.77-11.37-9.28-21.54-20.51-24.82-5.43-1.59-11.02-1.69-16.59-1.7-24.19-.06-48.37-.06-72.56-.02-4.68,0-9.38.04-14.02.53-11.79,1.24-20.18,7.15-24.84,17.85-2.23,5.12-2.46,10.57-2.48,15.99-.09,23.92-.09,47.84-.05,71.77,0,4.84.03,9.7.54,14.5,1.22,11.47,7.32,19.62,18.31,24.18,5.09,2.11,10.53,2.37,15.94,2.41,13.7.1,27.41.03,41.11.03Z"/>
    <path class="cls-1" d="M127.02,211.63c-13.7,0-27.41.07-41.11-.03-5.41-.04-10.84-.3-15.94-2.41-10.99-4.56-17.09-12.72-18.31-24.18-.51-4.8-.53-9.67-.54-14.5-.04-23.92-.04-47.84.05-71.77.02-5.42.25-10.87,2.48-15.99,4.66-10.7,13.06-16.62,24.84-17.85,4.64-.49,9.35-.52,14.02-.53,24.19-.04,48.37-.05,72.56.02,5.57.01,11.16.11,16.59,1.7,11.23,3.28,19.74,13.45,20.51,24.82.31,4.62.5,9.25.51,13.88.05,23.55.05,47.09-.02,70.64-.02,5.33-.11,10.68-1.77,15.87-3.55,11.1-13.79,19.1-25.7,19.88-4.58.3-9.18.46-13.77.49-11.47.07-22.94.02-34.41.02v-.05ZM172.39,182.66c.04-.32.09-.56.09-.8,0-12.57.29-25.15-.11-37.7-.28-8.87-5.04-16.55-14.17-20.05-9.6-3.67-21.6-.66-28.1,7.05-.2.24-.33.54-.49.82-.14-.08-.27-.17-.41-.25v-7.95h-17.14v58.86h18.24v-1.49c0-9.69,0-19.38,0-29.06,0-.96.04-1.93.22-2.86.85-4.36,2.9-7.92,7.54-9.32,4.79-1.44,9.39-1.22,13.14,2.52,2.23,2.22,2.84,5.08,2.84,8.08,0,10.23-.02,20.46-.02,30.69,0,.45,0,.9,0,1.45h18.37ZM82.85,123.75v58.9h18.59v-58.9h-18.59ZM102.92,104.43c0-5.73-4.83-10.48-10.68-10.5-6.04-.02-10.92,4.7-10.9,10.54.02,5.76,4.92,10.47,10.88,10.45,5.86-.02,10.7-4.77,10.7-10.49Z"/>
    <path class="cls-2" d="M172.39,182.66h-18.37c0-.55,0-1,0-1.45,0-10.23.02-20.46.02-30.69,0-3.01-.61-5.86-2.84-8.08-3.75-3.74-8.35-3.97-13.14-2.52-4.63,1.4-6.69,4.96-7.54,9.32-.18.94-.22,1.91-.22,2.86-.02,9.69,0,19.37,0,29.06v1.49h-18.24v-58.86h17.14v7.95c.14.08.27.17.41.25.16-.27.29-.58.49-.82,6.51-7.71,18.5-10.72,28.1-7.05,9.13,3.49,13.88,11.18,14.17,20.05.4,12.56.11,25.13.11,37.7,0,.24-.05.48-.09.8Z"/>
    <path class="cls-2" d="M82.85,123.75h18.59v58.9h-18.59v-58.9Z"/>
    <path class="cls-2" d="M102.92,104.43c0,5.71-4.85,10.46-10.7,10.49-5.96.02-10.86-4.68-10.88-10.45-.02-5.84,4.86-10.56,10.9-10.54,5.85.02,10.68,4.77,10.68,10.5Z"/>
  </g>
</svg>