<?xml version="1.0" encoding="UTF-8"?>
<svg id="Layer_1" xmlns="http://www.w3.org/2000/svg" viewBox="0 0 646.95 646.81">
  <path d="M633.04,573.44l-114.48-110.18c42.39-49.36,67.79-111.62,67.79-180.84C586.34,126.98,454.86,0,293.89,0,131.28,1.43,0,126.98,0,282.42s131.48,282.42,292.45,282.42c55.91,0,110.8-15.56,158.31-45.26l118.78,114.48c17,17,45.26,17,63.69,0,8.81-7.58,13.72-18.64,13.72-30.31-.2-11.67-5.12-22.73-13.93-30.31M292.45,485.79c-115.92,0-210.53-90.32-210.53-203.37s94.62-201.93,210.53-201.93,210.53,90.32,210.53,203.37-94.62,201.93-210.53,201.93"/>
</svg>