<?xml version="1.0" encoding="UTF-8"?>
<svg id="Layer_1" xmlns="http://www.w3.org/2000/svg" viewBox="0 0 251.08 238.79">
  <defs>
    <style>
      .cls-1 {
        fill: #231f20;
      }

      .cls-2 {
        fill: #fff;
      }
    </style>
  </defs>
  <polygon class="cls-2" points="125.54 0 0 91.21 47.95 238.79 203.13 238.79 251.08 91.21 125.54 0"/>
  <g>
    <path class="cls-1" d="M203.65,125.54v20.45c-.2,3.49-.36,6.99-.62,10.48-.51,6.67-.79,13.36-2.76,19.84-1.89,6.24-5.32,11.12-11.38,13.89-3.59,1.64-7.46,1.91-11.3,2.12-9.03.49-18.06.91-27.09,1.18-17.22.52-34.45.45-51.67-.16-10.5-.37-21.04-.19-31.44-1.92-6.48-1.08-11.76-4.15-14.74-10.31-1.98-4.1-3.14-8.46-3.66-12.97-.47-4.13-.71-8.29-1.04-12.44-.19-2.42-.36-4.84-.54-7.26v-25.33c.06-.35.16-.69.19-1.04.35-5.37.71-10.74,1.03-16.11.3-5.06,1.33-9.95,3.19-14.66,2.62-6.65,7.46-10.94,14.49-12.11,5.38-.9,10.89-1.22,16.36-1.46,9.69-.43,19.4-.7,29.1-.85,23.23-.38,46.44.02,69.62,1.71,5.58.41,10.44,2.5,14.22,6.73,2.86,3.2,4.26,7.13,5.25,11.2,2,8.19,2.07,16.6,2.51,24.96.07,1.36.18,2.72.27,4.08ZM106.12,105.99v58.63c16.34-9.81,32.51-19.51,48.85-29.31-16.39-9.83-32.53-19.52-48.85-29.31Z"/>
    <path class="cls-2" d="M47.42,148.42c.18,2.42.35,4.84.54,7.26.33,4.15.57,8.31,1.04,12.44.51,4.5,1.67,8.87,3.66,12.97,2.98,6.16,8.25,9.23,14.74,10.31,10.4,1.74,20.94,1.56,31.44,1.92,17.22.6,34.45.68,51.67.16,9.03-.27,18.07-.69,27.09-1.18,3.84-.21,7.71-.48,11.3-2.12,6.06-2.77,9.49-7.64,11.38-13.89,1.97-6.48,2.25-13.17,2.76-19.84.26-3.49.42-6.98.62-10.48v67.44H47.42v-65Z"/>
    <path class="cls-2" d="M203.65,125.54c-.09-1.36-.2-2.72-.27-4.08-.44-8.36-.51-16.76-2.51-24.96-.99-4.06-2.39-8-5.25-11.2-3.78-4.23-8.64-6.33-14.22-6.73-23.18-1.69-46.39-2.09-69.62-1.71-9.7.16-19.41.43-29.1.85-5.47.24-10.97.56-16.36,1.46-7.03,1.17-11.87,5.46-14.49,12.11-1.85,4.7-2.89,9.6-3.19,14.66-.32,5.37-.68,10.74-1.03,16.11-.02.35-.12.69-.19,1.04V57.19h156.23v68.34Z"/>
    <path class="cls-2" d="M106.12,105.99c16.32,9.79,32.46,19.48,48.85,29.31-16.34,9.81-32.5,19.51-48.85,29.31v-58.63Z"/>
  </g>
</svg>